<svg xmlns="http://www.w3.org/2000/svg" xmlns:svg="http://www.w3.org/2000/svg" xmlns:xlink="http://www.w3.org/1999/xlink" id="svg2" width="32" height="32" version="1.0"><defs id="defs4"><linearGradient id="linearGradient6380"><stop id="stop6382" offset="0" stop-color="#fff" stop-opacity="1"/><stop id="stop6384" offset="1" stop-color="#fff" stop-opacity="0"/></linearGradient><linearGradient id="linearGradient8368"><stop id="stop8370" offset="0" stop-color="#000" stop-opacity="0"/><stop id="stop8376" offset=".5" stop-color="#000" stop-opacity="1"/><stop id="stop8372" offset="1" stop-color="#000" stop-opacity="0"/></linearGradient><linearGradient id="linearGradient8358"><stop id="stop8360" offset="0" stop-color="#000" stop-opacity="1"/><stop id="stop8362" offset="1" stop-color="#000" stop-opacity="0"/></linearGradient><linearGradient id="linearGradient5354"><stop id="stop5356" offset="0" stop-color="#fff" stop-opacity="1"/><stop id="stop5358" offset="1" stop-color="#fff" stop-opacity="0"/></linearGradient><linearGradient id="linearGradient6288"><stop id="stop6290" offset="0" stop-color="#eeeeec" stop-opacity="1"/><stop id="stop6292" offset="1" stop-color="#729fcf" stop-opacity="1"/></linearGradient><radialGradient id="radialGradient8401" cx="1" cy="37.5" r="2" fx="1" fy="37.5" gradientTransform="matrix(1,0,0,1.25,-4,-84.375)" gradientUnits="userSpaceOnUse" xlink:href="#linearGradient8358"/><linearGradient id="linearGradient8403" x1="9" x2="9" y1="40" y2="35" gradientTransform="translate(-1,0)" gradientUnits="userSpaceOnUse" xlink:href="#linearGradient8368"/><radialGradient id="radialGradient8405" cx="1" cy="37.5" r="2" fx="1" fy="37.5" gradientTransform="matrix(1,0,0,1.25,44,-9.375)" gradientUnits="userSpaceOnUse" xlink:href="#linearGradient8358"/><radialGradient id="radialGradient6134" cx="17.482" cy="8.304" r="21" fx="17.482" fy="8.304" gradientTransform="matrix(-2.1913707,0,0,1.0205593,46.450372,5.9792266)" gradientUnits="userSpaceOnUse" xlink:href="#linearGradient6380"/><linearGradient id="linearGradient6152" x1="18.12" x2="18.12" y1="36.51" y2="40.376" gradientTransform="matrix(0.6363274,0,0,0.6,0.7273453,3.3999997)" gradientUnits="userSpaceOnUse" xlink:href="#linearGradient5354"/><radialGradient id="radialGradient6161" cx="11.031" cy="11.497" r="10.969" fx="11.031" fy="11.497" gradientTransform="matrix(2.0411675,0,0,1.4617166,-6.5174282,0.8997515)" gradientUnits="userSpaceOnUse" xlink:href="#linearGradient6288"/><linearGradient id="linearGradient2378"><stop id="stop2380" offset="0" stop-color="#fff" stop-opacity="1"/><stop id="stop4146" offset=".25" stop-color="#fefede" stop-opacity=".918"/><stop id="stop2386" offset=".5" stop-color="#f5f328" stop-opacity="1"/><stop id="stop2382" offset="1" stop-color="#f5f32d" stop-opacity=".122"/></linearGradient><radialGradient id="radialGradient7172" cx="38.659" cy="9.341" r="8.342" fx="38.659" fy="9.341" gradientUnits="userSpaceOnUse" xlink:href="#linearGradient2378"/></defs><metadata id="metadata7"/><g id="layer1"><g id="g8396" opacity=".3" transform="matrix(0.6956521,0,0,0.9,-0.6956507,-5.5)"><rect id="rect8348" width="2" height="5" x="-3" y="-40" fill="url(#radialGradient8401)" fill-opacity="1" stroke="none" stroke-dasharray="none" stroke-dashoffset=".7" stroke-linecap="round" stroke-linejoin="miter" stroke-miterlimit="4" stroke-opacity="1" stroke-width="1" opacity="1" transform="scale(-1,-1)"/><rect id="rect8366" width="42" height="5" x="3" y="35" fill="url(#linearGradient8403)" fill-opacity="1" stroke="none" stroke-dasharray="none" stroke-dashoffset=".7" stroke-linecap="round" stroke-linejoin="miter" stroke-miterlimit="4" stroke-opacity="1" stroke-width="1" opacity="1"/><rect id="rect8390" width="2" height="5" x="45" y="35" fill="url(#radialGradient8405)" fill-opacity="1" stroke="none" stroke-dasharray="none" stroke-dashoffset=".7" stroke-linecap="round" stroke-linejoin="miter" stroke-miterlimit="4" stroke-opacity="1" stroke-width="1" opacity="1"/></g><rect id="rect5317" width="28.998" height="22.98" x="1.5" y="5.51" fill="url(#radialGradient6161)" fill-opacity="1" stroke="#3465a4" stroke-dasharray="none" stroke-dashoffset=".7" stroke-linecap="round" stroke-linejoin="miter" stroke-miterlimit="4" stroke-opacity="1" stroke-width="1" rx="1.384" ry="1.428"/><rect id="rect6304" width="27" height="21" x="2.5" y="6.5" fill="none" fill-opacity="1" stroke="#fff" stroke-dasharray="none" stroke-dashoffset=".7" stroke-linecap="round" stroke-linejoin="miter" stroke-miterlimit="4" stroke-opacity="1" stroke-width="1" opacity=".45" rx=".709" ry=".729"/><rect id="rect6306" width="14" height="4" x="8.5" y="15.5" fill="#fff" fill-opacity="1" stroke="#729fcf" stroke-dasharray="none" stroke-dashoffset=".7" stroke-linecap="round" stroke-linejoin="miter" stroke-miterlimit="4" stroke-opacity="1" stroke-width="1" rx=".687" ry=".687"/><path id="path6308" fill="#000" fill-opacity="1" stroke="none" stroke-dasharray="none" stroke-dashoffset=".7" stroke-linecap="round" stroke-linejoin="miter" stroke-miterlimit="4" stroke-opacity="1" stroke-width="1" d="M 8.883029,11.769049 A 1.3037281,1.3479223 0 1 1 6.2755728,11.769049 A 1.3037281,1.3479223 0 1 1 8.883029,11.769049 z" transform="matrix(0.7763539,0,0,0.7418825,5.1036258,9.2687486)"/><path id="path5346" fill="#000" fill-opacity="1" stroke="none" stroke-dasharray="none" stroke-dashoffset=".7" stroke-linecap="round" stroke-linejoin="miter" stroke-miterlimit="4" stroke-opacity="1" stroke-width="1" d="M 8.883029,11.769049 A 1.3037281,1.3479223 0 1 1 6.2755728,11.769049 A 1.3037281,1.3479223 0 1 1 8.883029,11.769049 z" transform="matrix(0.7763539,0,0,0.7418825,8.1036258,9.2687486)"/><path id="path5348" fill="#000" fill-opacity="1" stroke="none" stroke-dasharray="none" stroke-dashoffset=".7" stroke-linecap="round" stroke-linejoin="miter" stroke-miterlimit="4" stroke-opacity="1" stroke-width="1" d="M 8.883029,11.769049 A 1.3037281,1.3479223 0 1 1 6.2755728,11.769049 A 1.3037281,1.3479223 0 1 1 8.883029,11.769049 z" transform="matrix(0.7763538,0,0,0.7418825,11.103626,9.2687486)"/><path id="path5350" fill="#000" fill-opacity="1" stroke="none" stroke-dasharray="none" stroke-dashoffset=".7" stroke-linecap="round" stroke-linejoin="miter" stroke-miterlimit="4" stroke-opacity="1" stroke-width="1" d="M 8.883029,11.769049 A 1.3037281,1.3479223 0 1 1 6.2755728,11.769049 A 1.3037281,1.3479223 0 1 1 8.883029,11.769049 z" transform="matrix(0.7670312,0,0,0.7418825,14.18644,9.2687492)"/><rect id="rect5352" width="27.998" height="3" x="2" y="25" fill="url(#linearGradient6152)" fill-opacity="1" stroke="none" stroke-dasharray="none" stroke-dashoffset=".7" stroke-linecap="round" stroke-linejoin="miter" stroke-miterlimit="4" stroke-opacity="1" stroke-width="1" opacity=".656" rx="0" ry="0"/><rect id="rect6331" width="8" height="1" x="8" y="13" fill="#000" fill-opacity="1" stroke="none" stroke-dasharray="none" stroke-dashoffset=".7" stroke-linecap="round" stroke-linejoin="miter" stroke-miterlimit="4" stroke-opacity="1" stroke-width="1" opacity=".069" rx=".5" ry=".5"/><path id="path6374" fill="url(#radialGradient6134)" fill-opacity="1" stroke="none" stroke-dasharray="none" stroke-dashoffset=".7" stroke-linecap="round" stroke-linejoin="miter" stroke-miterlimit="4" stroke-opacity="1" stroke-width="1" d="M 28.958334,6 C 29.539635,6 30,6.4756948 30,7.0763504 L 30,12.26436 C 21.539831,17.905895 11.847335,20.61019 2,18.09818 L 2,7.0763504 C 2,6.4756944 2.460366,6 3.0416667,6 L 28.958334,6 z" opacity=".5"/><g id="g1999" transform="translate(-14.448204,-1.634216)"><path id="path2388" fill="url(#radialGradient7172)" fill-opacity="1" fill-rule="evenodd" stroke="none" stroke-linecap="butt" stroke-linejoin="miter" stroke-opacity="1" stroke-width="1" d="M 47.000506,9.3411446 A 8.341651,8.341651 0 1 1 30.317204,9.3411446 A 8.341651,8.341651 0 1 1 47.000506,9.3411446 z" transform="matrix(1.14985,0,0,1.14985,-7.595328,0.490895)"/><path id="path1345" fill="#fff" fill-opacity="1" fill-rule="evenodd" stroke="none" stroke-dasharray="none" stroke-dashoffset="0" stroke-linecap="butt" stroke-linejoin="miter" stroke-miterlimit="4" stroke-opacity="1" stroke-width=".5" marker-end="none" marker-mid="none" marker-start="none" d="M 44.520054,15.50279 C 44.012883,16.381236 39.925351,15.341967 38.998703,15.754538 C 38.072055,16.167108 36.109289,19.900142 35.117113,19.689249 C 34.124936,19.478355 33.850222,15.26973 33.171495,14.515926 C 32.492767,13.762123 28.335913,13.048993 28.229885,12.040207 C 28.123857,11.031421 32.041607,9.4696164 32.548778,8.5911701 C 33.055949,7.7127238 32.449637,3.5389508 33.376285,3.1263806 C 34.302933,2.7138103 36.998949,5.957187 37.991126,6.1680807 C 38.983302,6.3789743 42.765436,4.5125708 43.444163,5.2663741 C 44.122891,6.0201775 41.871371,9.5864995 41.977399,10.595285 C 42.083426,11.604071 45.027225,14.624343 44.520054,15.50279 z" display="inline" opacity="1" overflow="visible" transform="matrix(0.674116,0.299577,-0.299577,0.674116,15.46413,-7.192469)" visibility="visible" style="marker:none"/></g></g></svg>