<svg xmlns="http://www.w3.org/2000/svg" xmlns:svg="http://www.w3.org/2000/svg" xmlns:xlink="http://www.w3.org/1999/xlink" id="svg2" width="16" height="16" version="1.0"><defs id="defs4"><linearGradient id="linearGradient6288"><stop id="stop6290" offset="0" stop-color="#eeeeec" stop-opacity="1"/><stop id="stop6292" offset="1" stop-color="#729fcf" stop-opacity="1"/></linearGradient><radialGradient id="radialGradient6294" cx="11.031" cy="11.497" r="10.969" fx="11.031" fy="11.497" gradientTransform="matrix(1.0315628,0,0,1.0500151,-3.348177,-3.6438158)" gradientUnits="userSpaceOnUse" xlink:href="#linearGradient6288"/></defs><metadata id="metadata7"/><g id="layer1"><rect id="rect5317" width="14.937" height="12.938" x=".562" y="1.563" fill="url(#radialGradient6294)" fill-opacity="1" stroke="#3465a4" stroke-dasharray="none" stroke-dashoffset=".7" stroke-linecap="round" stroke-linejoin="miter" stroke-miterlimit="4" stroke-opacity="1" stroke-width="1" opacity="1" rx="1.324" ry="1.324"/><rect id="rect6304" width="13" height="11.063" x="1.5" y="2.5" fill="none" fill-opacity="1" stroke="#fff" stroke-dasharray="none" stroke-dashoffset=".7" stroke-linecap="round" stroke-linejoin="miter" stroke-miterlimit="4" stroke-opacity="1" stroke-width="1" opacity=".55" rx=".579" ry=".579"/><rect id="rect6306" width="11" height="4.031" x="2.5" y="6.5" fill="#fff" fill-opacity="1" stroke="#729fcf" stroke-dasharray="none" stroke-dashoffset=".7" stroke-linecap="round" stroke-linejoin="miter" stroke-miterlimit="4" stroke-opacity="1" stroke-width="1" opacity="1" rx=".525" ry=".574"/><path id="path6308" fill="#000" fill-opacity="1" stroke="none" stroke-dasharray="none" stroke-dashoffset=".7" stroke-linecap="round" stroke-linejoin="miter" stroke-miterlimit="4" stroke-opacity="1" stroke-width="1" d="M 8.883029 11.769049 A 1.3037281 1.3479223 0 1 1 6.2755728,11.769049 A 1.3037281 1.3479223 0 1 1 8.883029 11.769049 z" opacity="1" transform="matrix(0.7670311,0,0,0.7418825,-0.8135595,0.2687487)"/><path id="path6310" fill="#000" fill-opacity="1" stroke="none" stroke-dasharray="none" stroke-dashoffset=".7" stroke-linecap="round" stroke-linejoin="miter" stroke-miterlimit="4" stroke-opacity="1" stroke-width="1" d="M 8.883029 11.769049 A 1.3037281 1.3479223 0 1 1 6.2755728,11.769049 A 1.3037281 1.3479223 0 1 1 8.883029 11.769049 z" opacity="1" transform="matrix(0.767031,0,0,0.7418825,2.1864414,0.2687487)"/><path id="path6312" fill="#000" fill-opacity="1" stroke="none" stroke-dasharray="none" stroke-dashoffset=".7" stroke-linecap="round" stroke-linejoin="miter" stroke-miterlimit="4" stroke-opacity="1" stroke-width="1" d="M 8.883029 11.769049 A 1.3037281 1.3479223 0 1 1 6.2755728,11.769049 A 1.3037281 1.3479223 0 1 1 8.883029 11.769049 z" opacity="1" transform="matrix(0.7670311,0,0,0.7418825,5.1864405,0.2687487)"/></g></svg>